<?xml version="1.0" encoding="UTF-8"?>
<!DOCTYPE svg PUBLIC "-//W3C//DTD SVG 1.1//EN" "http://www.w3.org/Graphics/SVG/1.1/DTD/svg11.dtd">
<svg xmlns="http://www.w3.org/2000/svg" version="1.1" width="200px" height="200px" style="shape-rendering:geometricPrecision; text-rendering:geometricPrecision; image-rendering:optimizeQuality; fill-rule:evenodd; clip-rule:evenodd" xmlns:xlink="http://www.w3.org/1999/xlink">
<g><path style="opacity:0.06" fill="#040404" d="M 81.5,11.5 C 92.8335,12.8118 104.167,12.8118 115.5,11.5C 123.807,13.2058 131.307,16.5391 138,21.5C 141.549,27.9297 144.549,34.5964 147,41.5C 153.464,65.2248 160.131,88.8914 167,112.5C 171.194,114.736 175.361,117.069 179.5,119.5C 189.328,131.221 189.661,143.055 180.5,155C 174.024,159.047 167.024,161.714 159.5,163C 146.515,165.289 133.682,168.122 121,171.5C 120.586,171.043 120.086,170.709 119.5,170.5C 103.479,175.819 87.479,175.652 71.5,170C 64.2416,167.692 57.0749,165.192 50,162.5C 49.6667,162.833 49.3333,163.167 49,163.5C 41.325,160.275 33.4916,157.441 25.5,155C 19.4586,152.111 15.9586,147.277 15,140.5C 13.5307,131.585 15.6973,123.752 21.5,117C 24.8662,114.816 28.5328,113.483 32.5,113C 34.286,112.215 35.786,111.049 37,109.5C 41.4505,82.3658 47.7838,55.6991 56,29.5C 57.3957,25.2076 59.8957,21.7076 63.5,19C 69.3281,15.7883 75.3281,13.2883 81.5,11.5 Z"/></g>
<g><path style="opacity:0.443" fill="#292929" d="M 81.5,19.5 C 93.9933,18.34 106.66,18.1733 119.5,19C 123.2,19.8428 126.2,21.6761 128.5,24.5C 126.022,23.1168 123.355,22.1168 120.5,21.5C 120.082,20.7784 119.416,20.2784 118.5,20C 106.171,19.5001 93.8378,19.3335 81.5,19.5 Z"/></g>
<g><path style="opacity:0.627" fill="#4e4e4e" d="M 81.5,19.5 C 93.8378,19.3335 106.171,19.5001 118.5,20C 119.416,20.2784 120.082,20.7784 120.5,21.5C 119.833,21.5 119.167,21.5 118.5,21.5C 117.833,21.5 117.167,21.5 116.5,21.5C 104.34,20.3401 92.0069,20.1735 79.5,21C 78.5842,21.2784 77.9175,21.7784 77.5,22.5C 76.8333,22.5 76.1667,22.5 75.5,22.5C 76.6067,20.0311 78.6067,19.0311 81.5,19.5 Z"/></g>
<g><path style="opacity:0.815" fill="#9b9b9b" d="M 116.5,21.5 C 103.47,21.2438 90.4701,21.5771 77.5,22.5C 77.9175,21.7784 78.5842,21.2784 79.5,21C 92.0069,20.1735 104.34,20.3401 116.5,21.5 Z"/></g>
<g><path style="opacity:0.999" fill="#efefef" d="M 116.5,21.5 C 117.167,21.5 117.833,21.5 118.5,21.5C 123.44,23.6001 128.107,26.2668 132.5,29.5C 134.856,33.9071 136.856,38.5738 138.5,43.5C 139.39,49.1662 141.057,54.4995 143.5,59.5C 144.301,61.0418 144.634,62.7085 144.5,64.5C 144.41,67.1522 145.076,69.4855 146.5,71.5C 147.057,76.1646 148.39,80.4979 150.5,84.5C 150.5,84.8333 150.5,85.1667 150.5,85.5C 150.41,88.1522 151.076,90.4855 152.5,92.5C 152.5,92.8333 152.5,93.1667 152.5,93.5C 152.41,96.1522 153.076,98.4855 154.5,100.5C 155.338,100.842 155.672,101.508 155.5,102.5C 156.39,108.166 158.057,113.5 160.5,118.5C 161.11,119.391 161.443,120.391 161.5,121.5C 163.32,123.448 165.654,124.448 168.5,124.5C 172.388,125.725 175.388,128.059 177.5,131.5C 178.833,135.833 178.833,140.167 177.5,144.5C 174.445,147.35 171.111,149.683 167.5,151.5C 166.432,152.434 165.099,152.768 163.5,152.5C 149.432,155.778 135.432,158.778 121.5,161.5C 119.901,161.232 118.568,161.566 117.5,162.5C 116.167,162.5 114.833,162.5 113.5,162.5C 105.269,164.181 96.9358,164.847 88.5,164.5C 87.8333,164.5 87.1667,164.5 86.5,164.5C 84.4855,163.076 82.1522,162.41 79.5,162.5C 76.9902,162.073 74.6568,161.407 72.5,160.5C 69.855,158.69 66.855,157.69 63.5,157.5C 61.8984,155.926 59.8984,155.259 57.5,155.5C 55.4855,154.076 53.1522,153.41 50.5,153.5C 47.4954,151.723 44.1621,150.723 40.5,150.5C 38.901,150.768 37.5676,150.434 36.5,149.5C 34.064,148.129 31.3973,147.129 28.5,146.5C 26.8036,144.475 25.137,142.475 23.5,140.5C 22.1358,133.259 24.1358,127.259 29.5,122.5C 29.8333,122.5 30.1667,122.5 30.5,122.5C 34.3597,122.192 38.0264,121.525 41.5,120.5C 43.2624,119.738 44.2624,118.404 44.5,116.5C 44.5,116.167 44.5,115.833 44.5,115.5C 46.369,113.365 47.0356,110.698 46.5,107.5C 46.9926,105.194 47.3259,102.861 47.5,100.5C 48.3266,96.1928 48.9933,91.8595 49.5,87.5C 50.9238,85.4855 51.5905,83.1522 51.5,80.5C 51.3253,78.3792 51.6586,76.3792 52.5,74.5C 53.9238,72.4855 54.5905,70.1522 54.5,67.5C 55.1495,65.5648 55.4828,63.5648 55.5,61.5C 56.3007,59.9582 56.634,58.2915 56.5,56.5C 58.2766,53.4954 59.2766,50.1621 59.5,46.5C 61.0739,44.8984 61.7406,42.8984 61.5,40.5C 61.2322,38.901 61.5655,37.5676 62.5,36.5C 63.4918,34.5439 64.4918,32.5439 65.5,30.5C 66.7598,28.6329 68.4265,27.2995 70.5,26.5C 72.8583,25.1261 75.1917,23.7928 77.5,22.5C 90.4701,21.5771 103.47,21.2438 116.5,21.5 Z"/></g>
<g><path style="opacity:1" fill="#d8d7d6" d="M 82.5,25.5 C 92.992,24.3412 103.659,24.1745 114.5,25C 117.914,25.2969 121.247,25.9635 124.5,27C 131.061,33.6378 134.395,41.8044 134.5,51.5C 133.833,50.5 133.167,49.5 132.5,48.5C 131.249,43.1219 129.249,38.1219 126.5,33.5C 126.5,31.5 125.5,30.5 123.5,30.5C 122.313,28.0246 120.313,27.0246 117.5,27.5C 117.167,27.5 116.833,27.5 116.5,27.5C 115.737,26.7321 114.737,26.2321 113.5,26C 103.172,25.5002 92.8387,25.3335 82.5,25.5 Z"/></g>
<g><path style="opacity:0.576" fill="#6f6f6f" d="M 118.5,21.5 C 119.167,21.5 119.833,21.5 120.5,21.5C 123.355,22.1168 126.022,23.1168 128.5,24.5C 129.833,25.5 131.167,26.5 132.5,27.5C 132.5,28.1667 132.5,28.8333 132.5,29.5C 128.107,26.2668 123.44,23.6001 118.5,21.5 Z"/></g>
<g><path style="opacity:0.541" fill="#5f5f5f" d="M 73.5,22.5 C 72.5,23.8333 71.5,25.1667 70.5,26.5C 68.4265,27.2995 66.7598,28.6329 65.5,30.5C 65.5569,29.391 65.8902,28.391 66.5,27.5C 68.5016,25.5182 70.8349,23.8516 73.5,22.5 Z"/></g>
<g><path style="opacity:0.957" fill="#bebebe" d="M 73.5,22.5 C 74.1667,22.5 74.8333,22.5 75.5,22.5C 76.1667,22.5 76.8333,22.5 77.5,22.5C 75.1917,23.7928 72.8583,25.1261 70.5,26.5C 71.5,25.1667 72.5,23.8333 73.5,22.5 Z"/></g>
<g><path style="opacity:1" fill="#aeaba7" d="M 82.5,25.5 C 92.8387,25.3335 103.172,25.5002 113.5,26C 114.737,26.2321 115.737,26.7321 116.5,27.5C 104.487,26.3105 92.4871,26.3105 80.5,27.5C 80.5,27.1667 80.5,26.8333 80.5,26.5C 81.4916,26.6716 82.1583,26.3382 82.5,25.5 Z"/></g>
<g><path style="opacity:1" fill="#9c9891" d="M 117.5,27.5 C 120.313,27.0246 122.313,28.0246 123.5,30.5C 121.456,29.4918 119.456,28.4918 117.5,27.5 Z"/></g>
<g><path style="opacity:1" fill="#86837e" d="M 123.5,30.5 C 125.5,30.5 126.5,31.5 126.5,33.5C 125.167,32.8333 124.167,31.8333 123.5,30.5 Z"/></g>
<g><path style="opacity:1" fill="#5c5a57" d="M 75.5,30.5 C 73.0551,32.9295 71.0551,35.5962 69.5,38.5C 69.5881,34.4105 71.5881,31.7438 75.5,30.5 Z"/></g>
<g><path style="opacity:0.796" fill="#8d8d8d" d="M 65.5,30.5 C 64.4918,32.5439 63.4918,34.5439 62.5,36.5C 62.0246,33.6874 63.0246,31.6874 65.5,30.5 Z"/></g>
<g><path style="opacity:0.3" fill="#2e2e2e" d="M 132.5,27.5 C 134.36,30.4935 136.36,33.4935 138.5,36.5C 140.476,42.7746 142.142,49.1079 143.5,55.5C 141.833,51.5 140.167,47.5 138.5,43.5C 136.856,38.5738 134.856,33.9071 132.5,29.5C 132.5,28.8333 132.5,28.1667 132.5,27.5 Z"/></g>
<g><path style="opacity:1" fill="#eda00c" d="M 78.5,37.5 C 78.5,38.1667 78.8333,38.5 79.5,38.5C 81.5625,39.7763 83.8958,40.6097 86.5,41C 93.8258,41.4997 101.159,41.6663 108.5,41.5C 114.103,42.1827 119.103,40.8493 123.5,37.5C 123.833,37.5 124.167,37.5 124.5,37.5C 124.259,39.8984 124.926,41.8984 126.5,43.5C 126.5,43.8333 126.5,44.1667 126.5,44.5C 126.677,48.7076 128.01,52.3743 130.5,55.5C 130.528,58.9164 131.528,61.9164 133.5,64.5C 133.41,67.1522 134.076,69.4855 135.5,71.5C 135.41,74.1522 136.076,76.4855 137.5,78.5C 138.301,80.0418 138.634,81.7085 138.5,83.5C 138.41,86.1522 139.076,88.4855 140.5,90.5C 140.69,93.855 141.69,96.855 143.5,99.5C 144.301,101.042 144.634,102.708 144.5,104.5C 144.41,107.152 145.076,109.485 146.5,111.5C 146.41,114.152 147.076,116.485 148.5,118.5C 149.129,121.397 150.129,124.064 151.5,126.5C 151.833,128.833 153.167,130.167 155.5,130.5C 155.218,131.778 154.551,132.778 153.5,133.5C 151.958,134.301 150.292,134.634 148.5,134.5C 145.505,134.294 142.838,134.96 140.5,136.5C 134.861,137.66 129.195,138.66 123.5,139.5C 112.241,141.178 100.907,141.845 89.5,141.5C 76.1561,138.832 62.8228,136.165 49.5,133.5C 47.9812,132.59 46.3146,131.757 44.5,131C 47.1013,130.08 49.7679,129.413 52.5,129C 53.2524,128.329 53.5858,127.496 53.5,126.5C 54.3414,124.621 54.6747,122.621 54.5,120.5C 54.5,120.167 54.5,119.833 54.5,119.5C 55.7899,118.942 56.6232,117.942 57,116.5C 58.9885,109.639 59.8218,102.639 59.5,95.5C 59.5,95.1667 59.5,94.8333 59.5,94.5C 62.4651,89.8025 63.7984,84.4691 63.5,78.5C 63.5,77.1667 63.5,75.8333 63.5,74.5C 64.9238,72.4855 65.5905,70.1522 65.5,67.5C 65.366,65.7085 65.6993,64.0418 66.5,62.5C 67.9238,60.4855 68.5905,58.1522 68.5,55.5C 68.6906,52.0173 69.3573,48.6839 70.5,45.5C 72.1632,43.5073 73.3299,41.1739 74,38.5C 74.6667,37.8333 75.3333,37.1667 76,36.5C 76.6708,37.2524 77.5041,37.5858 78.5,37.5 Z"/></g>
<g><path style="opacity:1" fill="#cbcac8" d="M 80.5,26.5 C 80.5,26.8333 80.5,27.1667 80.5,27.5C 78.58,28.0652 76.9133,29.0652 75.5,30.5C 71.5881,31.7438 69.5881,34.4105 69.5,38.5C 67.8731,42.9962 66.5397,47.6629 65.5,52.5C 64.0762,54.5145 63.4095,56.8478 63.5,59.5C 63.1667,59.5 62.8333,59.5 62.5,59.5C 62.1826,56.4281 62.5159,53.4281 63.5,50.5C 64.8316,44.3834 66.665,38.3834 69,32.5C 72.0777,29.0829 75.911,27.0829 80.5,26.5 Z"/></g>
<g><path style="opacity:1" fill="#29241e" d="M 116.5,27.5 C 116.833,27.5 117.167,27.5 117.5,27.5C 119.456,28.4918 121.456,29.4918 123.5,30.5C 124.167,31.8333 125.167,32.8333 126.5,33.5C 129.249,38.1219 131.249,43.1219 132.5,48.5C 132.723,52.1621 133.723,55.4954 135.5,58.5C 136.49,62.3862 137.49,66.3862 138.5,70.5C 138.723,74.1621 139.723,77.4954 141.5,80.5C 141.723,84.1621 142.723,87.4954 144.5,90.5C 146.636,96.7108 148.303,103.044 149.5,109.5C 149.723,113.162 150.723,116.495 152.5,119.5C 153.306,122.446 154.639,125.112 156.5,127.5C 155.448,127.351 154.448,127.517 153.5,128C 154.381,128.708 155.047,129.542 155.5,130.5C 153.167,130.167 151.833,128.833 151.5,126.5C 151.277,122.838 150.277,119.505 148.5,116.5C 148.204,114.597 147.537,112.93 146.5,111.5C 146.59,108.848 145.924,106.515 144.5,104.5C 144.634,102.708 144.301,101.042 143.5,99.5C 143.472,96.0836 142.472,93.0836 140.5,90.5C 140.59,87.8478 139.924,85.5145 138.5,83.5C 138.634,81.7085 138.301,80.0418 137.5,78.5C 137.59,75.8478 136.924,73.5145 135.5,71.5C 135.59,68.8478 134.924,66.5145 133.5,64.5C 133.31,61.145 132.31,58.145 130.5,55.5C 130.634,53.7085 130.301,52.0418 129.5,50.5C 129.277,46.8379 128.277,43.5046 126.5,40.5C 126.068,39.2905 125.401,38.2905 124.5,37.5C 123.797,35.2843 122.464,33.451 120.5,32C 108.956,29.5684 97.289,28.9017 85.5,30C 76.9383,31.7282 71.9383,36.8949 70.5,45.5C 69.3573,48.6839 68.6906,52.0173 68.5,55.5C 67.0762,57.5145 66.4095,59.8478 66.5,62.5C 65.6993,64.0418 65.366,65.7085 65.5,67.5C 64.0762,69.5145 63.4095,71.8478 63.5,74.5C 63.5,75.8333 63.5,77.1667 63.5,78.5C 62.8826,78.6107 62.3826,78.944 62,79.5C 61.3222,84.5399 60.4889,89.5399 59.5,94.5C 59.5,94.8333 59.5,95.1667 59.5,95.5C 57.98,103.424 56.3133,111.424 54.5,119.5C 54.5,119.833 54.5,120.167 54.5,120.5C 53.5418,122.302 52.8751,124.302 52.5,126.5C 52.3893,127.117 52.056,127.617 51.5,128C 48.8323,128.567 46.1656,129.067 43.5,129.5C 44.8502,128.35 44.6836,127.683 43,127.5C 40.9011,128.287 38.7345,128.62 36.5,128.5C 37.8333,127.833 39.1667,127.167 40.5,126.5C 43.9297,126.893 47.0964,126.227 50,124.5C 52.2078,116.628 53.7078,108.628 54.5,100.5C 55.913,97.7814 56.5797,94.7814 56.5,91.5C 57.5154,84.7714 58.8487,78.1048 60.5,71.5C 60.5,71.1667 60.5,70.8333 60.5,70.5C 61.6118,68.4006 62.2785,66.0673 62.5,63.5C 62.5,62.1667 62.5,60.8333 62.5,59.5C 62.8333,59.5 63.1667,59.5 63.5,59.5C 64.9238,57.4855 65.5905,55.1522 65.5,52.5C 66.5397,47.6629 67.8731,42.9962 69.5,38.5C 71.0551,35.5962 73.0551,32.9295 75.5,30.5C 76.9133,29.0652 78.58,28.0652 80.5,27.5C 92.4871,26.3105 104.487,26.3105 116.5,27.5 Z"/></g>
<g><path style="opacity:1" fill="#b77b07" d="M 124.5,37.5 C 125.401,38.2905 126.068,39.2905 126.5,40.5C 126.5,41.5 126.5,42.5 126.5,43.5C 124.926,41.8984 124.259,39.8984 124.5,37.5 Z"/></g>
<g><path style="opacity:1" fill="#c78501" d="M 123.5,37.5 C 119.103,40.8493 114.103,42.1827 108.5,41.5C 108.5,41.1667 108.5,40.8333 108.5,40.5C 112.16,40.8412 115.493,40.1745 118.5,38.5C 119.492,38.6716 120.158,38.3382 120.5,37.5C 121.652,36.375 122.652,36.375 123.5,37.5 Z"/></g>
<g><path style="opacity:1" fill="#7a5101" d="M 82.5,37.5 C 84.099,37.2322 85.4324,37.5655 86.5,38.5C 85.448,38.3505 84.448,38.5172 83.5,39C 91.4295,40.3633 99.4295,40.8633 107.5,40.5C 107.833,40.5 108.167,40.5 108.5,40.5C 108.5,40.8333 108.5,41.1667 108.5,41.5C 101.159,41.6663 93.8258,41.4997 86.5,41C 83.8958,40.6097 81.5625,39.7763 79.5,38.5C 80.791,38.7373 81.791,38.404 82.5,37.5 Z"/></g>
<g><path style="opacity:1" fill="#634102" d="M 116.5,35.5 C 117.376,35.3691 118.043,35.7025 118.5,36.5C 117.45,37.4288 117.45,38.0954 118.5,38.5C 115.493,40.1745 112.16,40.8412 108.5,40.5C 108.167,40.5 107.833,40.5 107.5,40.5C 101.167,39.8333 94.8333,39.1667 88.5,38.5C 96.0191,38.825 103.352,38.4916 110.5,37.5C 111.167,37.5 111.833,37.5 112.5,37.5C 114.483,37.8432 115.817,37.1765 116.5,35.5 Z"/></g>
<g><path style="opacity:1" fill="#322101" d="M 86.5,38.5 C 87.1667,38.5 87.8333,38.5 88.5,38.5C 94.8333,39.1667 101.167,39.8333 107.5,40.5C 99.4295,40.8633 91.4295,40.3633 83.5,39C 84.448,38.5172 85.448,38.3505 86.5,38.5 Z"/></g>
<g><path style="opacity:1" fill="#3a2601" d="M 120.5,37.5 C 120.158,38.3382 119.492,38.6716 118.5,38.5C 117.45,38.0954 117.45,37.4288 118.5,36.5C 118.043,35.7025 117.376,35.3691 116.5,35.5C 106.252,33.3224 95.9188,32.9891 85.5,34.5C 83.3352,34.1159 81.6685,34.7826 80.5,36.5C 80.9569,37.2975 81.6236,37.6309 82.5,37.5C 81.791,38.404 80.791,38.7373 79.5,38.5C 78.8333,38.5 78.5,38.1667 78.5,37.5C 78.4326,34.234 80.0992,32.734 83.5,33C 93.8333,32.3333 104.167,32.3333 114.5,33C 117.923,32.8551 119.923,34.3551 120.5,37.5 Z"/></g>
<g><path style="opacity:1" fill="#c48301" d="M 116.5,35.5 C 115.817,37.1765 114.483,37.8432 112.5,37.5C 112.611,36.8826 112.944,36.3826 113.5,36C 105.167,35.3333 96.8333,35.3333 88.5,36C 89.1667,36.3333 89.8333,36.6667 90.5,37C 97.1583,37.4996 103.825,37.6663 110.5,37.5C 103.352,38.4916 96.0191,38.825 88.5,38.5C 87.8333,38.5 87.1667,38.5 86.5,38.5C 85.4324,37.5655 84.099,37.2322 82.5,37.5C 83.0998,36.1001 84.0998,35.1001 85.5,34.5C 95.9188,32.9891 106.252,33.3224 116.5,35.5 Z"/></g>
<g><path style="opacity:1" fill="#845908" d="M 124.5,37.5 C 124.167,37.5 123.833,37.5 123.5,37.5C 122.652,36.375 121.652,36.375 120.5,37.5C 119.923,34.3551 117.923,32.8551 114.5,33C 104.167,32.3333 93.8333,32.3333 83.5,33C 80.0992,32.734 78.4326,34.234 78.5,37.5C 77.5041,37.5858 76.6708,37.2524 76,36.5C 75.3333,37.1667 74.6667,37.8333 74,38.5C 73.3299,41.1739 72.1632,43.5073 70.5,45.5C 71.9383,36.8949 76.9383,31.7282 85.5,30C 97.289,28.9017 108.956,29.5684 120.5,32C 122.464,33.451 123.797,35.2843 124.5,37.5 Z"/></g>
<g><path style="opacity:1" fill="#8a5b00" d="M 85.5,34.5 C 84.0998,35.1001 83.0998,36.1001 82.5,37.5C 81.6236,37.6309 80.9569,37.2975 80.5,36.5C 81.6685,34.7826 83.3352,34.1159 85.5,34.5 Z"/></g>
<g><path style="opacity:1" fill="#eea002" d="M 112.5,37.5 C 111.833,37.5 111.167,37.5 110.5,37.5C 103.825,37.6663 97.1583,37.4996 90.5,37C 89.8333,36.6667 89.1667,36.3333 88.5,36C 96.8333,35.3333 105.167,35.3333 113.5,36C 112.944,36.3826 112.611,36.8826 112.5,37.5 Z"/></g>
<g><path style="opacity:1" fill="#6e4b0e" d="M 126.5,40.5 C 128.277,43.5046 129.277,46.8379 129.5,50.5C 128.5,48.5 127.5,46.5 126.5,44.5C 126.5,44.1667 126.5,43.8333 126.5,43.5C 126.5,42.5 126.5,41.5 126.5,40.5 Z"/></g>
<g><path style="opacity:0.839" fill="#a1a1a1" d="M 61.5,40.5 C 61.7406,42.8984 61.0739,44.8984 59.5,46.5C 59.2594,44.1016 59.9261,42.1016 61.5,40.5 Z"/></g>
<g><path style="opacity:0.859" fill="#868686" d="M 138.5,43.5 C 140.167,47.5 141.833,51.5 143.5,55.5C 143.5,56.5 143.5,57.5 143.5,58.5C 143.5,58.8333 143.5,59.1667 143.5,59.5C 141.057,54.4995 139.39,49.1662 138.5,43.5 Z"/></g>
<g><path style="opacity:1" fill="#fefbf6" d="M 96.5,46.5 C 98.5914,46.3184 100.591,46.6518 102.5,47.5C 103.386,48.325 103.719,49.325 103.5,50.5C 101.825,53.5072 101.159,56.8405 101.5,60.5C 104.082,60.9746 106.082,60.3079 107.5,58.5C 107.366,56.7085 107.699,55.0418 108.5,53.5C 109.659,52.5442 110.826,51.5442 112,50.5C 113.44,51.1476 114.94,51.4809 116.5,51.5C 116.5,52.5 116.5,53.5 116.5,54.5C 115.683,56.8309 115.016,59.3309 114.5,62C 114.748,63.7491 115.748,64.5824 117.5,64.5C 120.139,66.1558 122.805,67.8224 125.5,69.5C 127.38,73.5585 128.38,77.8918 128.5,82.5C 128.167,83.8333 127.833,85.1667 127.5,86.5C 125.5,87.8333 123.833,89.5 122.5,91.5C 122.733,93.0618 123.4,94.3951 124.5,95.5C 126.809,100.619 127.142,105.952 125.5,111.5C 124.89,112.391 124.557,113.391 124.5,114.5C 122.833,115.5 121.5,116.833 120.5,118.5C 118.973,118.427 117.973,119.094 117.5,120.5C 116.833,120.5 116.167,120.5 115.5,120.5C 109.833,120.5 104.167,120.5 98.5,120.5C 98.5,122.167 98.5,123.833 98.5,125.5C 98.5674,126.959 98.2341,128.292 97.5,129.5C 96.2209,130.968 94.5542,131.635 92.5,131.5C 92.1667,131.5 91.8333,131.5 91.5,131.5C 90.5398,128.235 90.5398,124.902 91.5,121.5C 91.5,120.167 91.5,118.833 91.5,117.5C 86.3057,116.855 83.9724,119.189 84.5,124.5C 83.5655,125.568 83.2322,126.901 83.5,128.5C 81.139,128.326 78.8056,127.993 76.5,127.5C 76.5,126.167 76.5,124.833 76.5,123.5C 77.1587,120.545 77.4921,117.545 77.5,114.5C 75.4855,113.076 73.1522,112.41 70.5,112.5C 70.1667,112.5 69.8333,112.5 69.5,112.5C 67.2574,111.868 65.5907,110.534 64.5,108.5C 64.5,107.833 64.8333,107.5 65.5,107.5C 66.2485,106.469 66.9152,105.302 67.5,104C 70.3647,103.817 73.0314,103.317 75.5,102.5C 76.1667,100.5 76.8333,98.5 77.5,96.5C 79.1016,92.7607 80.1016,88.7607 80.5,84.5C 80.2322,82.901 80.5655,81.5676 81.5,80.5C 82.9238,78.4855 83.5905,76.1522 83.5,73.5C 84.0081,70.8239 84.1747,68.1572 84,65.5C 82.8873,64.695 81.7206,64.0283 80.5,63.5C 79.791,62.596 78.791,62.2627 77.5,62.5C 77.5,60.5 77.5,58.5 77.5,56.5C 77.62,55.4138 78.2867,54.7472 79.5,54.5C 82.4196,55.5856 85.4196,56.2523 88.5,56.5C 89.9187,57.4511 91.5853,57.7845 93.5,57.5C 93.5,56.5 93.5,55.5 93.5,54.5C 93.8333,53.8333 94.1667,53.1667 94.5,52.5C 96.0739,50.8984 96.7406,48.8984 96.5,46.5 Z"/></g>
<g><path style="opacity:1" fill="#c68606" d="M 126.5,44.5 C 127.5,46.5 128.5,48.5 129.5,50.5C 130.301,52.0418 130.634,53.7085 130.5,55.5C 128.01,52.3743 126.677,48.7076 126.5,44.5 Z"/></g>
<g><path style="opacity:0.851" fill="#898989" d="M 59.5,46.5 C 59.2766,50.1621 58.2766,53.4954 56.5,56.5C 56.7234,52.8379 57.7234,49.5046 59.5,46.5 Z"/></g>
<g><path style="opacity:1" fill="#faddb1" d="M 96.5,46.5 C 96.7406,48.8984 96.0739,50.8984 94.5,52.5C 94.2594,50.1016 94.9261,48.1016 96.5,46.5 Z"/></g>
<g><path style="opacity:1" fill="#fadfb6" d="M 116.5,54.5 C 116.5,53.5 116.5,52.5 116.5,51.5C 114.94,51.4809 113.44,51.1476 112,50.5C 110.826,51.5442 109.659,52.5442 108.5,53.5C 108.5,52.1667 108.5,50.8333 108.5,49.5C 111.249,49.2739 113.916,49.6072 116.5,50.5C 117.782,51.9584 117.782,53.2918 116.5,54.5 Z"/></g>
<g><path style="opacity:1" fill="#696561" d="M 132.5,48.5 C 133.167,49.5 133.833,50.5 134.5,51.5C 134.993,53.8056 135.326,56.139 135.5,58.5C 133.723,55.4954 132.723,52.1621 132.5,48.5 Z"/></g>
<g><path style="opacity:1" fill="#f4c16a" d="M 93.5,54.5 C 93.5,55.5 93.5,56.5 93.5,57.5C 91.5853,57.7845 89.9187,57.4511 88.5,56.5C 90.5542,56.6347 92.2209,55.968 93.5,54.5 Z"/></g>
<g><path style="opacity:1" fill="#f5c679" d="M 103.5,50.5 C 103.037,53.4824 102.704,56.4824 102.5,59.5C 104.292,59.634 105.958,59.3007 107.5,58.5C 106.082,60.3079 104.082,60.9746 101.5,60.5C 101.159,56.8405 101.825,53.5072 103.5,50.5 Z"/></g>
<g><path style="opacity:1" fill="#64625e" d="M 65.5,52.5 C 65.5905,55.1522 64.9238,57.4855 63.5,59.5C 63.4095,56.8478 64.0762,54.5145 65.5,52.5 Z"/></g>
<g><path style="opacity:1" fill="#96650a" d="M 130.5,55.5 C 132.31,58.145 133.31,61.145 133.5,64.5C 131.528,61.9164 130.528,58.9164 130.5,55.5 Z"/></g>
<g><path style="opacity:0.394" fill="#292929" d="M 66.5,27.5 C 65.8902,28.391 65.5569,29.391 65.5,30.5C 63.0246,31.6874 62.0246,33.6874 62.5,36.5C 61.5655,37.5676 61.2322,38.901 61.5,40.5C 59.9261,42.1016 59.2594,44.1016 59.5,46.5C 57.7234,49.5046 56.7234,52.8379 56.5,56.5C 56.634,58.2915 56.3007,59.9582 55.5,61.5C 53.9261,63.1016 53.2594,65.1016 53.5,67.5C 53.0074,69.8056 52.6741,72.139 52.5,74.5C 51.6586,76.3792 51.3253,78.3792 51.5,80.5C 50.0762,82.5145 49.4095,84.8478 49.5,87.5C 48.9933,91.8595 48.3266,96.1928 47.5,100.5C 46.0762,102.515 45.4095,104.848 45.5,107.5C 45.1667,110.167 44.8333,112.833 44.5,115.5C 44.5,115.833 44.5,116.167 44.5,116.5C 43.8333,116.833 43.1667,117.167 42.5,117.5C 46.1539,88.2152 52.6539,59.5486 62,31.5C 63.0692,29.5926 64.5692,28.2593 66.5,27.5 Z"/></g>
<g><path style="opacity:1" fill="#f9d9a6" d="M 77.5,56.5 C 77.5,58.5 77.5,60.5 77.5,62.5C 78.791,62.2627 79.791,62.596 80.5,63.5C 75.0539,63.1706 74.0539,60.8373 77.5,56.5 Z"/></g>
<g><path style="opacity:1" fill="#895d0b" d="M 68.5,55.5 C 68.5905,58.1522 67.9238,60.4855 66.5,62.5C 66.4095,59.8478 67.0762,57.5145 68.5,55.5 Z"/></g>
<g><path style="opacity:1" fill="#f5be63" d="M 116.5,54.5 C 116.342,57.9023 116.676,61.2356 117.5,64.5C 115.748,64.5824 114.748,63.7491 114.5,62C 115.016,59.3309 115.683,56.8309 116.5,54.5 Z"/></g>
<g><path style="opacity:1" fill="#cbcac7" d="M 134.5,51.5 C 139.169,60.5206 141.835,70.1872 142.5,80.5C 142.167,80.5 141.833,80.5 141.5,80.5C 141.277,76.8379 140.277,73.5046 138.5,70.5C 137.49,66.3862 136.49,62.3862 135.5,58.5C 135.326,56.139 134.993,53.8056 134.5,51.5 Z"/></g>
<g><path style="opacity:1" fill="#a8a4a1" d="M 62.5,63.5 C 62.2785,66.0673 61.6118,68.4006 60.5,70.5C 60.3379,68.4727 60.5045,66.4727 61,64.5C 61.3826,63.944 61.8826,63.6107 62.5,63.5 Z"/></g>
<g><path style="opacity:0.682" fill="#5c5c5c" d="M 55.5,61.5 C 55.4828,63.5648 55.1495,65.5648 54.5,67.5C 54.1667,67.5 53.8333,67.5 53.5,67.5C 53.2594,65.1016 53.9261,63.1016 55.5,61.5 Z"/></g>
<g><path style="opacity:1" fill="#7a530c" d="M 133.5,64.5 C 134.924,66.5145 135.59,68.8478 135.5,71.5C 134.076,69.4855 133.41,67.1522 133.5,64.5 Z"/></g>
<g><path style="opacity:0.898" fill="#a7a7a7" d="M 144.5,64.5 C 145.924,66.5145 146.59,68.8478 146.5,71.5C 145.076,69.4855 144.41,67.1522 144.5,64.5 Z"/></g>
<g><path style="opacity:0.547" fill="#2d2d2d" d="M 143.5,58.5 C 145.268,60.9216 146.768,63.5883 148,66.5C 150.431,73.6301 151.931,80.9634 152.5,88.5C 151.833,87.5 151.167,86.5 150.5,85.5C 150.5,85.1667 150.5,84.8333 150.5,84.5C 149.943,79.8354 148.61,75.5021 146.5,71.5C 146.59,68.8478 145.924,66.5145 144.5,64.5C 144.634,62.7085 144.301,61.0418 143.5,59.5C 143.5,59.1667 143.5,58.8333 143.5,58.5 Z"/></g>
<g><path style="opacity:1" fill="#f9d8a5" d="M 110.5,72.5 C 112.5,72.5 113.5,73.5 113.5,75.5C 112.167,74.8333 111.167,73.8333 110.5,72.5 Z"/></g>
<g><path style="opacity:0.816" fill="#959595" d="M 53.5,67.5 C 53.8333,67.5 54.1667,67.5 54.5,67.5C 54.5905,70.1522 53.9238,72.4855 52.5,74.5C 52.6741,72.139 53.0074,69.8056 53.5,67.5 Z"/></g>
<g><path style="opacity:1" fill="#724d0c" d="M 65.5,67.5 C 65.5905,70.1522 64.9238,72.4855 63.5,74.5C 63.4095,71.8478 64.0762,69.5145 65.5,67.5 Z"/></g>
<g><path style="opacity:1" fill="#4b4944" d="M 138.5,70.5 C 140.277,73.5046 141.277,76.8379 141.5,80.5C 139.723,77.4954 138.723,74.1621 138.5,70.5 Z"/></g>
<g><path style="opacity:1" fill="#79520c" d="M 135.5,71.5 C 136.924,73.5145 137.59,75.8478 137.5,78.5C 136.076,76.4855 135.41,74.1522 135.5,71.5 Z"/></g>
<g><path style="opacity:1" fill="#f0a418" d="M 110.5,72.5 C 111.167,73.8333 112.167,74.8333 113.5,75.5C 114.461,77.2646 114.795,79.2646 114.5,81.5C 113.078,82.925 111.411,83.925 109.5,84.5C 105.119,84.6282 100.785,84.2949 96.5,83.5C 96.5,82.1667 96.5,80.8333 96.5,79.5C 97.9238,77.4855 98.5905,75.1522 98.5,72.5C 98.5,71.5 98.5,70.5 98.5,69.5C 102.716,69.684 106.716,70.684 110.5,72.5 Z"/></g>
<g><path style="opacity:1" fill="#fbe6c5" d="M 125.5,69.5 C 127.173,70.343 128.34,71.6763 129,73.5C 129.805,76.6965 129.638,79.6965 128.5,82.5C 128.38,77.8918 127.38,73.5585 125.5,69.5 Z"/></g>
<g><path style="opacity:1" fill="#f3b850" d="M 98.5,72.5 C 98.5905,75.1522 97.9238,77.4855 96.5,79.5C 96.4095,76.8478 97.0762,74.5145 98.5,72.5 Z"/></g>
<g><path style="opacity:1" fill="#f8d398" d="M 83.5,73.5 C 83.5905,76.1522 82.9238,78.4855 81.5,80.5C 81.4095,77.8478 82.0762,75.5145 83.5,73.5 Z"/></g>
<g><path style="opacity:0.827" fill="#8a8a8a" d="M 146.5,71.5 C 148.61,75.5021 149.943,79.8354 150.5,84.5C 148.39,80.4979 147.057,76.1646 146.5,71.5 Z"/></g>
<g><path style="opacity:1" fill="#5b5752" d="M 141.5,80.5 C 141.833,80.5 142.167,80.5 142.5,80.5C 142.5,80.8333 142.5,81.1667 142.5,81.5C 143.578,84.4021 144.244,87.4021 144.5,90.5C 142.723,87.4954 141.723,84.1621 141.5,80.5 Z"/></g>
<g><path style="opacity:1" fill="#f4c169" d="M 96.5,79.5 C 96.5,80.8333 96.5,82.1667 96.5,83.5C 100.785,84.2949 105.119,84.6282 109.5,84.5C 109.5,84.8333 109.5,85.1667 109.5,85.5C 105.486,85.6655 101.486,85.4988 97.5,85C 95.368,83.3796 95.0347,81.5463 96.5,79.5 Z"/></g>
<g><path style="opacity:1" fill="#fce8c7" d="M 114.5,81.5 C 114.213,84.4841 112.546,85.8174 109.5,85.5C 109.5,85.1667 109.5,84.8333 109.5,84.5C 111.411,83.925 113.078,82.925 114.5,81.5 Z"/></g>
<g><path style="opacity:1" fill="#b37909" d="M 63.5,78.5 C 63.7984,84.4691 62.4651,89.8025 59.5,94.5C 60.4889,89.5399 61.3222,84.5399 62,79.5C 62.3826,78.944 62.8826,78.6107 63.5,78.5 Z"/></g>
<g><path style="opacity:0.765" fill="#828282" d="M 51.5,80.5 C 51.5905,83.1522 50.9238,85.4855 49.5,87.5C 49.4095,84.8478 50.0762,82.5145 51.5,80.5 Z"/></g>
<g><path style="opacity:1" fill="#a06c09" d="M 138.5,83.5 C 139.924,85.5145 140.59,87.8478 140.5,90.5C 139.076,88.4855 138.41,86.1522 138.5,83.5 Z"/></g>
<g><path style="opacity:1" fill="#f7cc87" d="M 80.5,84.5 C 80.1016,88.7607 79.1016,92.7607 77.5,96.5C 77.5841,92.1629 78.5841,88.1629 80.5,84.5 Z"/></g>
<g><path style="opacity:1" fill="#f6c469" d="M 127.5,86.5 C 126.833,89.1667 125.167,90.8333 122.5,91.5C 123.833,89.5 125.5,87.8333 127.5,86.5 Z"/></g>
<g><path style="opacity:0.886" fill="#9d9d9d" d="M 150.5,85.5 C 151.167,86.5 151.833,87.5 152.5,88.5C 152.5,89.5 152.5,90.5 152.5,91.5C 152.5,91.8333 152.5,92.1667 152.5,92.5C 151.076,90.4855 150.41,88.1522 150.5,85.5 Z"/></g>
<g><path style="opacity:1" fill="#f0a310" d="M 105.5,95.5 C 106.391,96.1098 107.391,96.4431 108.5,96.5C 112.385,100.552 112.385,104.719 108.5,109C 103.845,109.499 99.1785,109.666 94.5,109.5C 94.5,109.167 94.5,108.833 94.5,108.5C 94.6107,107.883 94.944,107.383 95.5,107C 92.1892,103.765 91.5225,99.9318 93.5,95.5C 97.5,95.5 101.5,95.5 105.5,95.5 Z"/></g>
<g><path style="opacity:1" fill="#f9ddae" d="M 105.5,95.5 C 105.5,95.1667 105.5,94.8333 105.5,94.5C 107.027,94.427 108.027,95.0937 108.5,96.5C 107.391,96.4431 106.391,96.1098 105.5,95.5 Z"/></g>
<g><path style="opacity:1" fill="#83590c" d="M 140.5,90.5 C 142.472,93.0836 143.472,96.0836 143.5,99.5C 141.69,96.855 140.69,93.855 140.5,90.5 Z"/></g>
<g><path style="opacity:0.49" fill="#343434" d="M 152.5,91.5 C 154.136,92.7489 155.303,94.4156 156,96.5C 157.739,100.311 158.572,104.311 158.5,108.5C 157.5,106.5 156.5,104.5 155.5,102.5C 155.672,101.508 155.338,100.842 154.5,100.5C 154.59,97.8478 153.924,95.5145 152.5,93.5C 152.5,93.1667 152.5,92.8333 152.5,92.5C 152.5,92.1667 152.5,91.8333 152.5,91.5 Z"/></g>
<g><path style="opacity:0.925" fill="#b6b6b6" d="M 152.5,93.5 C 153.924,95.5145 154.59,97.8478 154.5,100.5C 153.076,98.4855 152.41,96.1522 152.5,93.5 Z"/></g>
<g><path style="opacity:1" fill="#787572" d="M 56.5,91.5 C 56.5797,94.7814 55.913,97.7814 54.5,100.5C 54.4203,97.2186 55.087,94.2186 56.5,91.5 Z"/></g>
<g><path style="opacity:1" fill="#f1ab32" d="M 105.5,94.5 C 105.5,94.8333 105.5,95.1667 105.5,95.5C 101.5,95.5 97.5,95.5 93.5,95.5C 91.5225,99.9318 92.1892,103.765 95.5,107C 94.944,107.383 94.6107,107.883 94.5,108.5C 92.8561,108.714 91.3561,108.38 90,107.5C 89.6664,105.153 89.833,102.819 90.5,100.5C 91.0084,98.1346 91.6751,95.8013 92.5,93.5C 93.6667,93.1667 94.8333,92.8333 96,92.5C 99.2003,93.0683 102.367,93.7349 105.5,94.5 Z"/></g>
<g><path style="opacity:1" fill="#fbe7c8" d="M 124.5,95.5 C 125.458,95.9528 126.292,96.6195 127,97.5C 127.167,99.5 127.333,101.5 127.5,103.5C 127.713,106.527 127.047,109.193 125.5,111.5C 127.142,105.952 126.809,100.619 124.5,95.5 Z"/></g>
<g><path style="opacity:1" fill="#f8d49a" d="M 75.5,102.5 C 73.0314,103.317 70.3647,103.817 67.5,104C 66.9152,105.302 66.2485,106.469 65.5,107.5C 65.2865,105.856 65.6198,104.356 66.5,103C 69.4816,102.502 72.4816,102.335 75.5,102.5 Z"/></g>
<g><path style="opacity:1" fill="#ac740a" d="M 59.5,95.5 C 59.8218,102.639 58.9885,109.639 57,116.5C 56.6232,117.942 55.7899,118.942 54.5,119.5C 56.3133,111.424 57.98,103.424 59.5,95.5 Z"/></g>
<g><path style="opacity:1" fill="#fbe5c5" d="M 90.5,100.5 C 89.833,102.819 89.6664,105.153 90,107.5C 91.3561,108.38 92.8561,108.714 94.5,108.5C 94.5,108.833 94.5,109.167 94.5,109.5C 88.7962,109.854 86.9629,107.187 89,101.5C 89.3826,100.944 89.8826,100.611 90.5,100.5 Z"/></g>
<g><path style="opacity:0.718" fill="#6d6d6d" d="M 47.5,100.5 C 47.3259,102.861 46.9926,105.194 46.5,107.5C 46.1667,107.5 45.8333,107.5 45.5,107.5C 45.4095,104.848 46.0762,102.515 47.5,100.5 Z"/></g>
<g><path style="opacity:1" fill="#a06d09" d="M 144.5,104.5 C 145.924,106.515 146.59,108.848 146.5,111.5C 145.076,109.485 144.41,107.152 144.5,104.5 Z"/></g>
<g><path style="opacity:1" fill="#f9d59e" d="M 64.5,108.5 C 65.5907,110.534 67.2574,111.868 69.5,112.5C 67.8008,112.66 66.1341,112.494 64.5,112C 63.2089,110.708 63.2089,109.542 64.5,108.5 Z"/></g>
<g><path style="opacity:1" fill="#494540" d="M 149.5,109.5 C 151.277,112.505 152.277,115.838 152.5,119.5C 150.723,116.495 149.723,113.162 149.5,109.5 Z"/></g>
<g><path style="opacity:1" fill="#f9dbab" d="M 70.5,112.5 C 73.1522,112.41 75.4855,113.076 77.5,114.5C 74.8478,114.59 72.5145,113.924 70.5,112.5 Z"/></g>
<g><path style="opacity:0.973" fill="#bdbdbd" d="M 45.5,107.5 C 45.8333,107.5 46.1667,107.5 46.5,107.5C 47.0356,110.698 46.369,113.365 44.5,115.5C 44.8333,112.833 45.1667,110.167 45.5,107.5 Z"/></g>
<g><path style="opacity:1" fill="#a87108" d="M 146.5,111.5 C 147.537,112.93 148.204,114.597 148.5,116.5C 148.5,117.167 148.5,117.833 148.5,118.5C 147.076,116.485 146.41,114.152 146.5,111.5 Z"/></g>
<g><path style="opacity:0.773" fill="#737373" d="M 155.5,102.5 C 156.5,104.5 157.5,106.5 158.5,108.5C 158.963,111.221 159.629,113.888 160.5,116.5C 160.5,117.167 160.5,117.833 160.5,118.5C 158.057,113.5 156.39,108.166 155.5,102.5 Z"/></g>
<g><path style="opacity:1" fill="#f7c878" d="M 124.5,114.5 C 124.167,116.833 122.833,118.167 120.5,118.5C 121.5,116.833 122.833,115.5 124.5,114.5 Z"/></g>
<g><path style="opacity:0.678" fill="#5d5d5d" d="M 44.5,116.5 C 44.2624,118.404 43.2624,119.738 41.5,120.5C 38.8333,120.5 36.1667,120.5 33.5,120.5C 36.6343,119.965 39.6343,118.965 42.5,117.5C 43.1667,117.167 43.8333,116.833 44.5,116.5 Z"/></g>
<g><path style="opacity:1" fill="#f6c87b" d="M 120.5,118.5 C 120.027,119.906 119.027,120.573 117.5,120.5C 117.973,119.094 118.973,118.427 120.5,118.5 Z"/></g>
<g><path style="opacity:1" fill="#76500d" d="M 148.5,116.5 C 150.277,119.505 151.277,122.838 151.5,126.5C 150.129,124.064 149.129,121.397 148.5,118.5C 148.5,117.833 148.5,117.167 148.5,116.5 Z"/></g>
<g><path style="opacity:1" fill="#f8d7a5" d="M 115.5,120.5 C 110.36,121.488 105.026,121.821 99.5,121.5C 99.7678,123.099 99.4345,124.432 98.5,125.5C 98.5,123.833 98.5,122.167 98.5,120.5C 104.167,120.5 109.833,120.5 115.5,120.5 Z"/></g>
<g><path style="opacity:0.514" fill="#474747" d="M 160.5,116.5 C 161.364,117.688 162.364,118.855 163.5,120C 167.518,120.919 171.185,122.586 174.5,125C 175.748,126.4 176.748,127.9 177.5,129.5C 177.5,130.167 177.5,130.833 177.5,131.5C 175.388,128.059 172.388,125.725 168.5,124.5C 166.491,122.935 164.157,121.935 161.5,121.5C 161.443,120.391 161.11,119.391 160.5,118.5C 160.5,117.833 160.5,117.167 160.5,116.5 Z"/></g>
<g><path style="opacity:0.878" fill="#a8a8a8" d="M 33.5,120.5 C 36.1667,120.5 38.8333,120.5 41.5,120.5C 38.0264,121.525 34.3597,122.192 30.5,122.5C 31.5,121.833 32.5,121.167 33.5,120.5 Z"/></g>
<g><path style="opacity:0.898" fill="#bbbbbb" d="M 161.5,121.5 C 164.157,121.935 166.491,122.935 168.5,124.5C 165.654,124.448 163.32,123.448 161.5,121.5 Z"/></g>
<g><path style="opacity:0.486" fill="#434343" d="M 33.5,120.5 C 32.5,121.167 31.5,121.833 30.5,122.5C 30.1667,122.5 29.8333,122.5 29.5,122.5C 27.5887,123.075 25.922,124.075 24.5,125.5C 24.281,124.325 24.6143,123.325 25.5,122.5C 28.0205,121.215 30.6872,120.548 33.5,120.5 Z"/></g>
<g><path style="opacity:1" fill="#6f4b0d" d="M 54.5,120.5 C 54.6747,122.621 54.3414,124.621 53.5,126.5C 53.1667,126.5 52.8333,126.5 52.5,126.5C 52.8751,124.302 53.5418,122.302 54.5,120.5 Z"/></g>
<g><path style="opacity:1" fill="#716c67" d="M 40.5,126.5 C 39.1667,127.167 37.8333,127.833 36.5,128.5C 34.8333,128.5 33.1667,128.5 31.5,128.5C 34.2186,127.087 37.2186,126.42 40.5,126.5 Z"/></g>
<g><path style="opacity:1" fill="#f8d49d" d="M 91.5,121.5 C 90.5398,124.902 90.5398,128.235 91.5,131.5C 90.2749,130.848 89.6083,129.681 89.5,128C 89.4967,125.516 90.1634,123.349 91.5,121.5 Z"/></g>
<g><path style="opacity:1" fill="#6e6a65" d="M 157.5,127.5 C 161.162,127.723 164.495,128.723 167.5,130.5C 166.833,130.5 166.167,130.5 165.5,130.5C 162.603,129.871 159.936,128.871 157.5,127.5 Z"/></g>
<g><path style="opacity:1" fill="#f6c677" d="M 76.5,123.5 C 76.5,124.833 76.5,126.167 76.5,127.5C 78.8056,127.993 81.139,128.326 83.5,128.5C 83.2322,126.901 83.5655,125.568 84.5,124.5C 84.5,126.167 84.5,127.833 84.5,129.5C 81.4552,129.492 78.4552,129.159 75.5,128.5C 75.2155,126.585 75.5489,124.919 76.5,123.5 Z"/></g>
<g><path style="opacity:1" fill="#92630a" d="M 52.5,126.5 C 52.8333,126.5 53.1667,126.5 53.5,126.5C 53.5858,127.496 53.2524,128.329 52.5,129C 49.7679,129.413 47.1013,130.08 44.5,131C 46.3146,131.757 47.9812,132.59 49.5,133.5C 47.139,133.326 44.8056,132.993 42.5,132.5C 42.5569,131.391 42.8902,130.391 43.5,129.5C 46.1656,129.067 48.8323,128.567 51.5,128C 52.056,127.617 52.3893,127.117 52.5,126.5 Z"/></g>
<g><path style="opacity:1" fill="#151311" d="M 43.5,129.5 C 41.4482,130.053 41.1148,131.053 42.5,132.5C 44.8056,132.993 47.139,133.326 49.5,133.5C 62.8228,136.165 76.1561,138.832 89.5,141.5C 97.6563,142.657 105.99,142.823 114.5,142C 117.742,141.594 120.742,140.761 123.5,139.5C 129.195,138.66 134.861,137.66 140.5,136.5C 143.428,136.435 146.095,135.768 148.5,134.5C 150.292,134.634 151.958,134.301 153.5,133.5C 154.5,133.5 155.5,133.5 156.5,133.5C 156.737,132.209 156.404,131.209 155.5,130.5C 155.047,129.542 154.381,128.708 153.5,128C 154.448,127.517 155.448,127.351 156.5,127.5C 156.833,127.5 157.167,127.5 157.5,127.5C 159.936,128.871 162.603,129.871 165.5,130.5C 165.685,132.196 166.519,133.529 168,134.5C 168.711,136.899 168.544,139.232 167.5,141.5C 157.249,144.305 146.916,146.805 136.5,149C 135.244,149.417 134.577,150.25 134.5,151.5C 129.97,153.006 125.303,154.006 120.5,154.5C 118.924,153.925 117.258,153.592 115.5,153.5C 99.5282,157.862 84.0282,156.529 69,149.5C 68.7216,150.416 68.2216,151.082 67.5,151.5C 66.8777,149.665 65.5444,148.498 63.5,148C 57.6587,146.664 51.992,144.831 46.5,142.5C 45.5581,142.608 44.7247,142.941 44,143.5C 43.6258,142.584 43.1258,141.75 42.5,141C 38.9137,139.892 35.247,139.392 31.5,139.5C 31.1667,139.5 30.8333,139.5 30.5,139.5C 30.3227,135.766 30.6561,132.099 31.5,128.5C 33.1667,128.5 34.8333,128.5 36.5,128.5C 38.7345,128.62 40.9011,128.287 43,127.5C 44.6836,127.683 44.8502,128.35 43.5,129.5 Z"/></g>
<g><path style="opacity:1" fill="#573c0d" d="M 43.5,129.5 C 42.8902,130.391 42.5569,131.391 42.5,132.5C 41.1148,131.053 41.4482,130.053 43.5,129.5 Z"/></g>
<g><path style="opacity:1" fill="#f8d6a1" d="M 97.5,129.5 C 97.5,130.5 97.5,131.5 97.5,132.5C 95.5853,132.784 93.9187,132.451 92.5,131.5C 94.5542,131.635 96.2209,130.968 97.5,129.5 Z"/></g>
<g><path style="opacity:1" fill="#7e550a" d="M 155.5,130.5 C 156.404,131.209 156.737,132.209 156.5,133.5C 155.5,133.5 154.5,133.5 153.5,133.5C 154.551,132.778 155.218,131.778 155.5,130.5 Z"/></g>
<g><path style="opacity:0.392" fill="#232323" d="M 22.5,132.5 C 22.1936,135.385 22.5269,138.052 23.5,140.5C 23.5,141.833 23.5,143.167 23.5,144.5C 21.634,142.075 20.634,139.241 20.5,136C 20.6083,134.319 21.2749,133.152 22.5,132.5 Z"/></g>
<g><path style="opacity:0.804" fill="#8f8f8f" d="M 29.5,122.5 C 24.1358,127.259 22.1358,133.259 23.5,140.5C 22.5269,138.052 22.1936,135.385 22.5,132.5C 22.3939,129.921 23.0605,127.588 24.5,125.5C 25.922,124.075 27.5887,123.075 29.5,122.5 Z"/></g>
<g><path style="opacity:1" fill="#85817c" d="M 31.5,128.5 C 30.6561,132.099 30.3227,135.766 30.5,139.5C 29.3592,136.36 29.1925,133.027 30,129.5C 30.3826,128.944 30.8826,128.611 31.5,128.5 Z"/></g>
<g><path style="opacity:1" fill="#6b480c" d="M 148.5,134.5 C 146.095,135.768 143.428,136.435 140.5,136.5C 142.838,134.96 145.505,134.294 148.5,134.5 Z"/></g>
<g><path style="opacity:0.447" fill="#2f2f2f" d="M 177.5,129.5 C 180.95,134.745 181.45,140.412 179,146.5C 177.143,149.2 174.643,150.866 171.5,151.5C 174.213,149.786 176.213,147.453 177.5,144.5C 178.833,140.167 178.833,135.833 177.5,131.5C 177.5,130.833 177.5,130.167 177.5,129.5 Z"/></g>
<g><path style="opacity:1" fill="#a9a6a2" d="M 170.5,133.5 C 171.993,134.312 172.66,135.645 172.5,137.5C 172.48,138.726 172.147,139.726 171.5,140.5C 171.552,138.097 171.219,135.764 170.5,133.5 Z"/></g>
<g><path style="opacity:1" fill="#212120" d="M 31.5,139.5 C 35.247,139.392 38.9137,139.892 42.5,141C 43.1258,141.75 43.6258,142.584 44,143.5C 44.7247,142.941 45.5581,142.608 46.5,142.5C 51.992,144.831 57.6587,146.664 63.5,148C 65.5444,148.498 66.8777,149.665 67.5,151.5C 66.8333,151.5 66.1667,151.5 65.5,151.5C 61.647,150.203 57.647,149.203 53.5,148.5C 49.4775,146.266 45.1442,144.599 40.5,143.5C 37.0534,142.917 34.0534,141.584 31.5,139.5 Z"/></g>
<g><path style="opacity:1" fill="#232322" d="M 165.5,130.5 C 166.167,130.5 166.833,130.5 167.5,130.5C 168.167,131.833 169.167,132.833 170.5,133.5C 171.219,135.764 171.552,138.097 171.5,140.5C 171.5,140.833 171.5,141.167 171.5,141.5C 169.463,142.846 167.463,144.18 165.5,145.5C 162.848,145.41 160.515,146.076 158.5,147.5C 151.529,148.993 144.529,150.326 137.5,151.5C 136.5,151.5 135.5,151.5 134.5,151.5C 134.577,150.25 135.244,149.417 136.5,149C 146.916,146.805 157.249,144.305 167.5,141.5C 168.544,139.232 168.711,136.899 168,134.5C 166.519,133.529 165.685,132.196 165.5,130.5 Z"/></g>
<g><path style="opacity:1" fill="#8d5f0a" d="M 123.5,139.5 C 120.742,140.761 117.742,141.594 114.5,142C 105.99,142.823 97.6563,142.657 89.5,141.5C 100.907,141.845 112.241,141.178 123.5,139.5 Z"/></g>
<g><path style="opacity:0.643" fill="#6b6b6b" d="M 23.5,140.5 C 25.137,142.475 26.8036,144.475 28.5,146.5C 27.8333,146.5 27.1667,146.5 26.5,146.5C 26.0269,145.094 25.0269,144.427 23.5,144.5C 23.5,143.167 23.5,141.833 23.5,140.5 Z"/></g>
<g><path style="opacity:1" fill="#d4d3d1" d="M 142.5,81.5 C 143.497,81.4701 144.164,81.9701 144.5,83C 148.858,96.4098 153.025,109.91 157,123.5C 161.559,125.407 166.059,127.407 170.5,129.5C 172.946,131.761 173.946,134.595 173.5,138C 174.389,142.44 172.722,145.44 168.5,147C 158.458,150.595 148.124,152.429 137.5,152.5C 137.5,152.167 137.5,151.833 137.5,151.5C 144.529,150.326 151.529,148.993 158.5,147.5C 161.152,147.59 163.485,146.924 165.5,145.5C 168.878,146.109 170.878,144.776 171.5,141.5C 171.5,141.167 171.5,140.833 171.5,140.5C 172.147,139.726 172.48,138.726 172.5,137.5C 172.66,135.645 171.993,134.312 170.5,133.5C 169.167,132.833 168.167,131.833 167.5,130.5C 164.495,128.723 161.162,127.723 157.5,127.5C 157.167,127.5 156.833,127.5 156.5,127.5C 154.639,125.112 153.306,122.446 152.5,119.5C 152.277,115.838 151.277,112.505 149.5,109.5C 148.303,103.044 146.636,96.7108 144.5,90.5C 144.244,87.4021 143.578,84.4021 142.5,81.5 Z"/></g>
<g><path style="opacity:1" fill="#97948f" d="M 40.5,143.5 C 45.1442,144.599 49.4775,146.266 53.5,148.5C 48.6763,147.787 44.343,146.12 40.5,143.5 Z"/></g>
<g><path style="opacity:1" fill="#9c9b98" d="M 171.5,141.5 C 170.878,144.776 168.878,146.109 165.5,145.5C 167.463,144.18 169.463,142.846 171.5,141.5 Z"/></g>
<g><path style="opacity:1" fill="#93908c" d="M 165.5,145.5 C 163.485,146.924 161.152,147.59 158.5,147.5C 160.515,146.076 162.848,145.41 165.5,145.5 Z"/></g>
<g><path style="opacity:0.655" fill="#757575" d="M 177.5,144.5 C 176.213,147.453 174.213,149.786 171.5,151.5C 170.167,151.5 168.833,151.5 167.5,151.5C 171.111,149.683 174.445,147.35 177.5,144.5 Z"/></g>
<g><path style="opacity:0.663" fill="#707070" d="M 28.5,146.5 C 31.3973,147.129 34.064,148.129 36.5,149.5C 33.284,149.655 30.6174,148.655 28.5,146.5 Z"/></g>
<g><path style="opacity:0.918" fill="#adadad" d="M 40.5,150.5 C 44.1621,150.723 47.4954,151.723 50.5,153.5C 46.8379,153.277 43.5046,152.277 40.5,150.5 Z"/></g>
<g><path style="opacity:1" fill="#84807c" d="M 65.5,151.5 C 66.1667,151.5 66.8333,151.5 67.5,151.5C 69.5,152.5 71.5,153.5 73.5,154.5C 70.284,154.655 67.6174,153.655 65.5,151.5 Z"/></g>
<g><path style="opacity:0.929" fill="#bdbdbd" d="M 50.5,153.5 C 53.1522,153.41 55.4855,154.076 57.5,155.5C 54.8478,155.59 52.5145,154.924 50.5,153.5 Z"/></g>
<g><path style="opacity:0.392" fill="#3b3b3b" d="M 26.5,146.5 C 27.1667,146.5 27.8333,146.5 28.5,146.5C 30.6174,148.655 33.284,149.655 36.5,149.5C 37.5676,150.434 38.901,150.768 40.5,150.5C 43.5046,152.277 46.8379,153.277 50.5,153.5C 52.5145,154.924 54.8478,155.59 57.5,155.5C 59.1016,157.074 61.1016,157.741 63.5,157.5C 65.0725,158.687 66.7392,159.687 68.5,160.5C 66.4727,160.662 64.4727,160.495 62.5,160C 51.3783,156.846 40.3783,153.513 29.5,150C 28.2899,148.961 27.2899,147.794 26.5,146.5 Z"/></g>
<g><path style="opacity:1" fill="#4d4b46" d="M 75.5,154.5 C 79.1621,154.723 82.4954,155.723 85.5,157.5C 81.8379,157.277 78.5046,156.277 75.5,154.5 Z"/></g>
<g><path style="opacity:1" fill="#262524" d="M 120.5,154.5 C 119.167,155.167 117.833,155.833 116.5,156.5C 113.273,156.676 110.273,157.343 107.5,158.5C 103.857,158.975 100.19,159.308 96.5,159.5C 92.5527,159.637 88.886,158.97 85.5,157.5C 82.4954,155.723 79.1621,154.723 75.5,154.5C 74.8333,154.5 74.1667,154.5 73.5,154.5C 71.5,153.5 69.5,152.5 67.5,151.5C 68.2216,151.082 68.7216,150.416 69,149.5C 84.0282,156.529 99.5282,157.862 115.5,153.5C 117.258,153.592 118.924,153.925 120.5,154.5 Z"/></g>
<g><path style="opacity:1" fill="#cac8c6" d="M 60.5,71.5 C 58.8487,78.1048 57.5154,84.7714 56.5,91.5C 55.087,94.2186 54.4203,97.2186 54.5,100.5C 53.7078,108.628 52.2078,116.628 50,124.5C 47.0964,126.227 43.9297,126.893 40.5,126.5C 37.2186,126.42 34.2186,127.087 31.5,128.5C 30.8826,128.611 30.3826,128.944 30,129.5C 29.1925,133.027 29.3592,136.36 30.5,139.5C 30.8333,139.5 31.1667,139.5 31.5,139.5C 34.0534,141.584 37.0534,142.917 40.5,143.5C 44.343,146.12 48.6763,147.787 53.5,148.5C 57.647,149.203 61.647,150.203 65.5,151.5C 67.6174,153.655 70.284,154.655 73.5,154.5C 74.1667,154.5 74.8333,154.5 75.5,154.5C 78.5046,156.277 81.8379,157.277 85.5,157.5C 88.886,158.97 92.5527,159.637 96.5,159.5C 100.19,159.308 103.857,158.975 107.5,158.5C 107.082,159.222 106.416,159.722 105.5,160C 97.0693,160.847 88.7359,160.347 80.5,158.5C 72.5969,156.053 64.5969,153.886 56.5,152C 48.2922,148.598 39.9588,145.598 31.5,143C 30.3333,141.833 29.1667,140.667 28,139.5C 27.7368,135.165 27.9035,130.832 28.5,126.5C 34.7612,125.873 40.9279,124.873 47,123.5C 51.2871,107.35 54.7871,91.0162 57.5,74.5C 57.8684,72.8247 58.8684,71.8247 60.5,71.5 Z"/></g>
<g><path style="opacity:1" fill="#aca9a6" d="M 134.5,151.5 C 135.5,151.5 136.5,151.5 137.5,151.5C 137.5,151.833 137.5,152.167 137.5,152.5C 132.921,153.814 128.254,155.148 123.5,156.5C 121.167,156.5 118.833,156.5 116.5,156.5C 117.833,155.833 119.167,155.167 120.5,154.5C 125.303,154.006 129.97,153.006 134.5,151.5 Z"/></g>
<g><path style="opacity:0.918" fill="#bdbdbd" d="M 57.5,155.5 C 59.8984,155.259 61.8984,155.926 63.5,157.5C 61.1016,157.741 59.1016,157.074 57.5,155.5 Z"/></g>
<g><path style="opacity:0.51" fill="#5b5b5b" d="M 163.5,152.5 C 163.38,153.586 162.713,154.253 161.5,154.5C 150.758,157.113 140.091,159.446 129.5,161.5C 126.833,161.5 124.167,161.5 121.5,161.5C 135.432,158.778 149.432,155.778 163.5,152.5 Z"/></g>
<g><path style="opacity:0.918" fill="#b8b8b8" d="M 63.5,157.5 C 66.855,157.69 69.855,158.69 72.5,160.5C 71.1667,160.5 69.8333,160.5 68.5,160.5C 66.7392,159.687 65.0725,158.687 63.5,157.5 Z"/></g>
<g><path style="opacity:1" fill="#dfdfdf" d="M 116.5,156.5 C 118.833,156.5 121.167,156.5 123.5,156.5C 114.984,159.04 106.15,161.04 97,162.5C 91.1563,162.063 85.6563,160.73 80.5,158.5C 88.7359,160.347 97.0693,160.847 105.5,160C 106.416,159.722 107.082,159.222 107.5,158.5C 110.273,157.343 113.273,156.676 116.5,156.5 Z"/></g>
<g><path style="opacity:0.314" fill="#1a1a1a" d="M 167.5,151.5 C 168.833,151.5 170.167,151.5 171.5,151.5C 165.862,154.483 159.695,156.816 153,158.5C 146.454,159.409 139.954,160.576 133.5,162C 131.996,163.788 130.329,164.288 128.5,163.5C 122.674,165.532 116.674,166.532 110.5,166.5C 116.765,164.558 123.098,162.891 129.5,161.5C 140.091,159.446 150.758,157.113 161.5,154.5C 162.713,154.253 163.38,153.586 163.5,152.5C 165.099,152.768 166.432,152.434 167.5,151.5 Z"/></g>
<g><path style="opacity:0.514" fill="#464646" d="M 68.5,160.5 C 69.8333,160.5 71.1667,160.5 72.5,160.5C 74.6568,161.407 76.9902,162.073 79.5,162.5C 81.5145,163.924 83.8478,164.59 86.5,164.5C 87.1667,164.5 87.8333,164.5 88.5,164.5C 95.6844,165.702 103.018,165.702 110.5,164.5C 113.152,164.59 115.485,163.924 117.5,162.5C 118.568,161.566 119.901,161.232 121.5,161.5C 124.167,161.5 126.833,161.5 129.5,161.5C 123.098,162.891 116.765,164.558 110.5,166.5C 95.6658,169.048 81.6658,167.048 68.5,160.5 Z"/></g>
<g><path style="opacity:0.894" fill="#b2b2b2" d="M 113.5,162.5 C 112.5,163.167 111.5,163.833 110.5,164.5C 103.018,165.702 95.6844,165.702 88.5,164.5C 96.9358,164.847 105.269,164.181 113.5,162.5 Z"/></g>
<g><path style="opacity:0.635" fill="#6a6a6a" d="M 113.5,162.5 C 114.833,162.5 116.167,162.5 117.5,162.5C 115.485,163.924 113.152,164.59 110.5,164.5C 111.5,163.833 112.5,163.167 113.5,162.5 Z"/></g>
<g><path style="opacity:0.835" fill="#a0a0a0" d="M 79.5,162.5 C 82.1522,162.41 84.4855,163.076 86.5,164.5C 83.8478,164.59 81.5145,163.924 79.5,162.5 Z"/></g>
</svg>
